<svg width="121" height="121" viewBox="0 0 121 121" fill="none" xmlns="http://www.w3.org/2000/svg">
<path fill-rule="evenodd" clip-rule="evenodd" d="M32.9779 85.1602C42.0912 96.9539 60.4938 105.797 60.4938 105.797C60.4938 105.797 78.8965 96.9539 88.0098 85.1602C96.3628 74.8788 105.207 63.9328 105.207 15.7971C105.207 15.7971 78.8378 21.5296 60.4938 21.5296C42.1499 21.5296 15.7805 15.7971 15.7805 15.7971C15.7805 63.9328 24.6249 74.8788 32.9779 85.1602ZM37.1024 81.8771C44.8266 91.8732 60.4243 99.3685 60.4243 99.3685L60.4243 66.319C78.411 66.319 94.7709 60.9617 94.7709 60.9617C96.9266 52.6079 98.3223 40.8724 98.3223 23.2682C98.3223 23.2682 75.9722 28.127 60.4243 28.127L60.4243 66.1373C42.4376 66.1373 26.0776 60.7801 26.0776 60.7801C28.9179 71.7868 33.0775 76.923 37.1024 81.8771Z" fill="white"/>
</svg>
