<svg width="41" height="41" viewBox="0 0 41 41" fill="none" xmlns="http://www.w3.org/2000/svg">
<path d="M20.756 22.4217L25.9752 27.6409L28.8037 24.8125L23.5844 19.5933L33.4911 9.68656L35.6124 4.73682L30.6627 6.85814L20.756 16.7648L10.5622 6.57103L5.61242 4.44971L7.73374 9.39946L17.9275 19.5933L12.4212 25.0996L15.2496 27.9281L20.756 22.4217Z" fill="white"/>
<path d="M31.1351 23.8953L24.7711 30.2593L26.8924 32.3806L33.2564 26.0166L31.1351 23.8953Z" fill="white"/>
<path d="M29.7209 30.9664L31.8422 28.8451L36.7919 33.7948L34.6706 35.9161L29.7209 30.9664Z" fill="white"/>
<path d="M16.1668 30.2595L9.80285 23.8955L7.68153 26.0168L14.0455 32.3808L16.1668 30.2595Z" fill="white"/>
<path d="M9.09574 28.8453L11.2171 30.9666L6.26731 35.9163L4.146 33.795L9.09574 28.8453Z" fill="white"/>
</svg>
