<svg width="121" height="120" viewBox="0 0 121 120" fill="none" xmlns="http://www.w3.org/2000/svg">
<path fill-rule="evenodd" clip-rule="evenodd" d="M104.419 15C104.353 19.7809 102.69 31.1108 96.5598 38.1838C90.4298 45.2569 76.585 59.5994 70.4289 65.8866L67.2853 73.549L62.177 73.3526L56.4793 84.5515L49.6027 80.6221L47.245 82.9798L45.4767 82.7833L27.7942 99.4835C27.9251 100.531 28.5801 102.784 30.1518 103.413C32.1166 104.199 24.3559 106.949 19.3458 102.627C14.9078 98.7982 16.3987 89.6598 17.5775 91.4281C18.3888 92.6451 20.3946 93.2523 21.3395 93.5384C21.3999 93.5566 21.4559 93.5736 21.507 93.5893L38.4037 76.1032L37.9125 74.4332L40.172 71.7808L36.046 65.6901L47.0485 59.5994L46.6556 54.8841L54.1216 50.7581C58.9619 45.8358 66.8042 38.2454 73.0215 32.2278C76.7307 28.6379 79.8615 25.6077 81.4314 24.0378C86.8344 18.6348 98.6228 15.7859 104.419 15ZM97.9877 21.6801C97.9579 23.8573 97.2004 29.017 94.4088 32.2381C91.713 35.3486 58.8112 68.9449 54.0303 73.8267C53.8603 74.0003 53.7258 74.1376 53.6296 74.2359L52.3777 67.8757L45.8227 66.8193C48.1201 64.4829 64.372 48.5299 75.9124 37.2017C82.05 31.1768 86.855 26.4602 87.5193 25.7959C89.9798 23.3354 95.3482 22.038 97.9877 21.6801Z" fill="white"/>
</svg>
