<svg width="121" height="120" viewBox="0 0 121 120" fill="none" xmlns="http://www.w3.org/2000/svg">
<path fill-rule="evenodd" clip-rule="evenodd" d="M65.6059 17.9506C63.2382 14.0165 57.5346 14.0165 55.167 17.9506L43.6709 37.0533C42.8203 38.4666 41.4329 39.4746 39.8259 39.8468L18.1057 44.8772C13.6325 45.9132 11.8699 51.3377 14.8799 54.8052L29.4951 71.6417C30.5764 72.8874 31.1064 74.5183 30.9638 76.1617L29.0361 98.3733C28.6391 102.948 33.2534 106.3 37.4813 104.509L58.0101 95.812C59.529 95.1686 61.2439 95.1686 62.7627 95.812L83.2916 104.509C87.5194 106.3 92.1338 102.948 91.7368 98.3733L89.8091 76.1617C89.6665 74.5183 90.1964 72.8874 91.2777 71.6417L105.893 54.8052C108.903 51.3377 107.14 45.9132 102.667 44.8772L80.9469 39.8468C79.3399 39.4746 77.9525 38.4666 77.102 37.0533L65.6059 17.9506ZM60.3864 90.602C75.0214 90.602 86.8854 78.7381 86.8854 64.1031C86.8854 49.4681 75.0214 37.6042 60.3864 37.6042C45.7515 37.6042 33.8875 49.4681 33.8875 64.1031C33.8875 78.7381 45.7515 90.602 60.3864 90.602Z" fill="white"/>
<path d="M79.2708 59.0774C79.2708 66.3949 73.3388 72.3269 66.0213 72.3269C58.7038 72.3269 52.7718 66.3949 52.7718 59.0774C52.7718 51.7599 58.7038 45.828 66.0213 45.828C73.3388 45.828 79.2708 51.7599 79.2708 59.0774Z" fill="white"/>
<path d="M53.6856 76.1342C53.6856 79.4145 51.0264 82.0736 47.7462 82.0736C44.4659 82.0736 41.8068 79.4145 41.8068 76.1342C41.8068 72.854 44.4659 70.1948 47.7462 70.1948C51.0264 70.1948 53.6856 72.854 53.6856 76.1342Z" fill="white"/>
</svg>
