<svg width="121" height="121" viewBox="0 0 121 121" fill="none" xmlns="http://www.w3.org/2000/svg">
<path d="M66.6339 6.14111L60.9928 0.5L55.9972 5.49564C59.5301 5.34369 63.114 5.56599 66.6339 6.14111Z" fill="white"/>
<path d="M103.321 42.8279C104.031 53.0827 101.569 61.1649 96.9565 67.5742C92.243 74.1238 85.5724 78.5209 78.893 81.8383C74.1005 84.2185 68.9363 86.2037 64.2975 87.9869L64.2945 87.9881L64.2921 87.989L64.2897 87.9899L64.2875 87.9908C62.5612 88.6544 60.9078 89.29 59.3736 89.9076C53.2788 92.3612 49.2565 94.4627 47.2062 96.8372C44.5421 99.9225 44.0086 101.341 43.8852 102.35C43.8474 102.659 43.8383 102.989 43.8657 103.373L60.9928 120.5L120.993 60.5L103.321 42.8279Z" fill="white"/>
<path d="M36.867 65.9606C55.9756 74.4826 71.8014 53.3522 64.4681 41.1022C69.5514 56.7689 49.3014 63.5189 40.4681 57.8522C30.5226 51.4721 32.5172 35.3103 42.3014 28.6855C58.3014 17.8522 78.5153 27.0513 80.3014 41.5189C81.9681 55.0189 76.4681 64.6855 47.5521 79.609C24.0083 89.8016 34.8194 103.764 40.7353 110.715C38.2573 102.989 37.8691 100.247 43.5438 93.6748C47.2868 89.3401 54.6342 86.5157 62.7732 83.387C80.0566 76.7433 100.91 68.7274 98.3957 41.9643C95.5916 12.1109 55.5223 2.548 36.5624 16.7401C20.1493 29.0258 17.7585 57.4387 36.867 65.9606Z" fill="white"/>
<path d="M29.4654 88.9727C30.0494 87.5692 30.8502 86.1826 31.8949 84.8318C34.2375 81.1169 40.5571 77.8323 46.5192 74.7336C50.2876 72.775 53.9132 70.8907 56.3014 69.0189C56.3014 69.0189 46.8014 75.1022 34.8962 70.3799C23.2338 65.1788 18.3488 53.9852 18.5502 42.9427L0.992798 60.5001L29.4654 88.9727Z" fill="white"/>
</svg>
