<svg width="122" height="122" viewBox="0 0 122 122" fill="none" xmlns="http://www.w3.org/2000/svg">
<path fill-rule="evenodd" clip-rule="evenodd" d="M45.3752 19.0911C52.7197 14.1297 62.5776 15.3549 68.6328 21.2346C70.276 22.8301 71.8327 24.2673 73.2898 25.6126C76.5814 28.6514 79.3643 31.2207 81.4855 34.0843C83.4807 36.7778 80.4958 37.5537 76.7348 38.5313C74.7272 39.0532 72.4984 39.6326 70.6878 40.5918C68.8355 41.5731 66.4905 43.7877 64.1034 46.0421C60.4767 49.4671 56.7528 52.9839 54.5118 52.407C52.5781 51.9091 51.5087 50.2412 50.4318 48.5617C49.4392 47.0136 48.4402 45.4556 46.7522 44.7951C45.1476 44.1672 43.5903 45.0514 42.0441 45.9293C40.5537 46.7756 39.0736 47.616 37.5715 47.0902C34.5113 46.0192 34.3583 42.9517 35.5824 37.9096C35.8364 36.8634 36.0647 35.8685 36.2826 34.9192C37.8779 27.9676 38.9132 23.4564 45.3752 19.0911ZM51.2796 46.2565C49.9424 44.3575 48.5025 42.3127 46.0848 42.3127C44.8564 42.3127 43.667 43.0654 42.5055 43.8005C41.129 44.6716 39.7918 45.5179 38.4753 45.0571C36.048 44.2075 36.4333 42.3388 37.4043 38.3395C37.7085 37.0867 37.9539 35.9021 38.1866 34.7787C39.2368 29.7091 40.0288 25.8859 44.7976 22.6644C48.5268 21.2929 53.62 30.082 55.4406 33.5413C55.6837 34.0032 55.9606 34.5161 56.2564 35.064C58.176 38.6196 60.8892 43.6452 60.289 45.7104C59.7843 47.4471 56.0039 49.7503 54.5059 49.3647C53.2385 49.0384 52.2883 47.6889 51.2796 46.2565Z" fill="white"/>
<path d="M33.9393 48.8811C28.8024 53.6706 25.2783 59.1672 25.2783 66.0614C25.2783 78.6765 41.0818 88.4419 60.589 88.4419C80.0962 88.4419 95.92 78.6765 95.92 66.0614C95.92 59.7336 91.3445 47.3023 85.022 37.9233C84.9582 38.0158 84.8917 38.1058 84.8225 38.1945C84.0956 39.1182 83.1795 39.6846 82.4879 40.0356C81.7652 40.403 80.9929 40.6792 80.2955 40.8984C79.4865 41.1531 78.441 41.4268 77.475 41.679C76.9354 41.8196 76.4206 41.9539 75.9855 42.0756C75.3917 42.2403 74.8398 42.4075 74.3315 42.5811C73.6164 42.8244 72.9878 43.0804 72.451 43.3642C71.7473 43.7367 70.6947 44.5514 69.2567 45.8426C68.4277 46.5876 67.6386 47.3327 66.8092 48.117L66.7851 48.1398C66.1653 48.7265 65.5226 49.3334 64.8238 49.9784C63.315 51.3709 61.6437 52.8394 60.0263 53.9C59.213 54.4334 58.2763 54.9555 57.2674 55.2963C56.2685 55.6333 54.9285 55.8817 53.4823 55.5092C50.0605 54.6285 48.2643 51.8207 47.3254 50.3534L47.2247 50.195C46.1912 48.5871 45.7723 48.0625 45.4618 47.8509C45.1609 47.9548 44.7559 48.1652 43.9898 48.5998L43.843 48.6834L43.8303 48.691C43.1595 49.0724 42.143 49.6502 41.0636 50.0227C39.7986 50.4586 38.0899 50.7487 36.2267 50.0962C35.4131 49.8111 34.6371 49.4145 33.9393 48.8811Z" fill="white"/>
<path d="M121.099 61.4188L60.5991 0.919434L48.131 13.3875C56.168 10.5404 65.3125 12.5981 71.3443 18.4546C72.9443 20.0093 74.464 21.412 75.9216 22.7576L75.9302 22.7652L75.9408 22.7753C76.8396 23.6053 77.7218 24.42 78.5663 25.2183C84.5156 29.4465 89.7347 37.253 93.4208 44.7516C97.1489 52.3351 99.8125 60.6395 99.8125 66.0741C99.8125 74.1694 94.7273 80.8368 87.6407 85.2906C80.5245 89.7622 70.9455 92.347 60.589 92.347C50.2325 92.347 40.6579 89.7622 33.5461 85.2894C26.4635 80.8356 21.3858 74.1669 21.3858 66.0741C21.3858 57.5985 25.8028 51.1162 31.4409 45.9021C31.2103 45.19 31.0761 44.4564 31.0158 43.7316C30.8412 41.6346 31.2413 39.3044 31.7998 37.0034C32.047 35.9847 32.2702 35.0128 32.4886 34.0612L32.5459 33.8116C33.0602 31.5689 33.5721 29.3363 34.3159 27.2025L0.0991211 61.4188L60.5991 121.919L121.099 61.4188Z" fill="white"/>
</svg>
