<svg width="121" height="121" viewBox="0 0 121 121" fill="none" xmlns="http://www.w3.org/2000/svg">
<path d="M60.9928 0.5L79.2483 18.7554C73.0899 19.5731 66.5664 20.1939 60.9928 20.1939C55.4193 20.1939 48.8957 19.5731 42.7374 18.7554L60.9928 0.5Z" fill="white"/>
<path d="M101.045 65.4943C102.808 60.0559 104.214 53.3234 105.112 44.6192L120.993 60.5L60.9928 120.5L0.992798 60.5L16.8736 44.6192C17.772 53.3234 19.1776 60.0559 20.9411 65.4943C24.1546 75.4042 28.4869 80.7594 32.3482 85.5122C36.9742 91.4787 43.7232 96.4789 49.0389 99.8917L60.9928 107.247L72.9467 99.8917C78.2625 96.4789 85.0114 91.4787 89.6374 85.5122C93.4987 80.7594 97.831 75.4042 101.045 65.4943Z" fill="white"/>
<path fill-rule="evenodd" clip-rule="evenodd" d="M60.9928 101.145C60.9928 101.145 44.3711 93.1576 36.1397 82.5052C28.595 73.2189 20.6065 63.3321 20.6065 19.8547C20.6065 19.8547 44.424 25.0325 60.9928 25.0325C77.5615 25.0325 101.379 19.8547 101.379 19.8547C101.379 63.3321 93.3905 73.2189 85.8459 82.5052C77.6145 93.1576 60.9928 101.145 60.9928 101.145ZM60.93 95.3386C60.93 95.3386 46.8418 88.5686 39.8651 79.5399C36.2296 75.0652 32.4726 70.426 29.9072 60.4845C29.9072 60.4845 44.6839 65.3233 60.93 65.3233L60.93 30.9914C74.9732 30.9914 95.1604 26.6028 95.1604 26.6028C95.1604 42.5034 93.8998 53.1032 91.9527 60.6486C91.9527 60.6486 77.176 65.4874 60.93 65.4874L60.93 95.3386Z" fill="white"/>
</svg>
