<svg width="121" height="120" viewBox="0 0 121 120" fill="none" xmlns="http://www.w3.org/2000/svg">
<path d="M27.069 40.483C30.2973 32.2329 36.9332 24.1622 49.8463 17.885C36.9332 20.5752 25.1782 30.7757 19.1777 42.2765C41.0582 95.1844 72.9823 107.201 83.2052 104.69L90.5585 101.462C83.2052 104.69 47.6941 97.4026 27.069 40.483Z" fill="white"/>
<path fill-rule="evenodd" clip-rule="evenodd" d="M95.922 98.0594C101.302 94.4725 107.22 53.0591 91.2192 20.057C82.2187 15.8066 69.4679 12.8063 56.4668 17.0568C45.4662 21.5571 37.7157 27.3075 31.7151 38.8083C52.3402 95.7279 89.0244 102.658 95.922 98.0594ZM90.9001 87.8366C95.5884 71.4652 96.4795 54.5345 87.6718 28.4721C81.2154 25.4231 72.0686 23.2709 62.7423 26.32C54.8511 29.5482 49.2913 33.6732 44.9868 41.9233C60.0522 81.7387 79.5489 85.9454 90.9001 87.8366Z" fill="white"/>
</svg>
