<svg width="121" height="121" viewBox="0 0 121 121" fill="none" xmlns="http://www.w3.org/2000/svg">
<path d="M60.9928 0.5L81.0704 20.5777C79.8372 21.4039 78.6872 22.3182 77.6766 23.3289C76.3755 24.6299 51.0805 31.5685 39.3516 34.7858C38.3853 35.0509 37.5111 35.2907 36.75 35.5C64.7376 36.1882 57.6213 43.0276 52.5577 47.8942L52.5559 47.896C52.102 48.3322 51.6646 48.7526 51.2706 49.1512L41.8178 54.3929L42.1911 59.0216L29.4872 66.0779L34.4156 73.369L32.8839 75.1657L33.306 76.6132L25.3441 84.8513L0.992798 60.5L60.9928 0.5Z" fill="white"/>
<path d="M98.1639 43.8163C99.1746 42.8055 100.089 41.6557 100.915 40.4224L120.993 60.5L60.9928 120.5L36.6415 96.1487L44.8796 88.1869L46.3271 88.609L48.1237 87.0772L55.4149 92.0056L62.4712 79.3018L67.0999 79.6751L72.3415 70.2223C72.8662 69.7037 73.4257 69.1013 74.0062 68.4763C78.7878 63.3281 85 56.6396 85 82.5C86.1334 79.2743 87.9058 73.7654 89.7936 67.8982C93.3192 56.9406 97.2468 44.7334 98.1639 43.8163Z" fill="white"/>
<path d="M18.3207 103.172C13.9758 99.4266 17.1013 91.3162 18.2535 93.0483C19.0465 94.2405 21.0133 94.8311 21.9398 95.1093C21.9989 95.127 22.0538 95.1435 22.1039 95.1588L38.7315 77.9543L38.254 76.3167L40.4782 73.7079L36.4455 67.7418L47.2588 61.7357L46.8856 57.1093L54.2232 53.0406C58.9862 48.1973 66.7024 40.7278 72.8196 34.8061C76.469 31.2733 79.5493 28.2914 81.0941 26.7466C86.4106 21.4301 97.9865 18.6032 103.676 17.8166C102.89 23.5064 100.063 35.0824 94.7463 40.3989C93.2016 41.9436 90.2197 45.0239 86.687 48.6733C80.7652 54.7905 73.2956 62.5067 68.4523 67.2697L64.3836 74.6073L59.7573 74.2342L53.7511 85.0475L47.7851 81.0147L45.1762 83.239L43.5387 82.7614L26.3341 99.3891C26.3494 99.4392 26.3659 99.4941 26.3837 99.5532C26.6619 100.48 27.2525 102.447 28.4446 103.239C30.1767 104.392 22.0663 107.517 18.3207 103.172Z" fill="white"/>
</svg>
