<svg width="120" height="120" viewBox="0 0 120 120" fill="none" xmlns="http://www.w3.org/2000/svg">
<path d="M50.0118 107.892C44.8114 96.9579 44.672 93.2468 45.552 88.261C46.4384 83.2395 54.0607 73.2587 61.4553 63.2389C61.8343 65.9904 62.4645 72.9058 64.4785 76.2384C65.0247 77.1422 65.815 78.2594 66.724 79.5444C70.0049 84.1823 77.286 88.0506 77.7628 94.9159C78.2133 101.402 76.5823 104.901 74.7986 107.465C73.015 110.03 81.9406 107.823 86.8584 100.121C91.7763 92.4188 95.0487 85.5529 92.8929 74.0287C89.7217 57.0765 82.9193 47.1837 80.3591 45.1835C82.2372 51.4611 82.277 57.7863 77.3049 57.255C72.3587 56.7264 72.0774 47.9291 71.6788 35.4604L71.6725 35.2636C71.2705 22.6907 62.4418 11.3451 58.0918 9.86596C60.9672 20.0852 58.9038 29.5816 46.8004 48.73C43.9221 52.8984 41.4126 56.7109 39.3122 60.305C36.8599 58.4825 33.0609 58.3998 30.205 58.8644C34.2185 62.2745 33.7897 66.9869 32.8493 74.3143C32.7762 74.8839 32.7056 75.4399 32.6385 75.9825C31.9548 79.0143 31.6824 82.0418 31.8543 85.1768C32.4294 95.6633 36.2677 101.772 50.0118 107.892Z" fill="white"/>
</svg>
