<svg width="120" height="120" viewBox="0 0 120 120" fill="none" xmlns="http://www.w3.org/2000/svg">
<path fill-rule="evenodd" clip-rule="evenodd" d="M60 110C77.4746 110 91.6406 95.834 91.6406 78.3594C91.6406 65.9282 85.1603 57.8788 78.0415 49.0365C70.1981 39.2942 61.5797 28.589 60 10C36.8229 45.1563 28.3594 60.8848 28.3594 78.3594C28.3594 95.834 42.5254 110 60 110ZM81.0505 64.6563C79.2732 61.348 76.8424 58.3836 73.9137 55.9532C73.9137 55.9532 89.2708 72.2719 72.22 89.0388C55.1691 105.806 38.2552 90.8275 38.2552 90.8275C40.7094 93.7221 43.7093 96.1299 47.0627 97.8967C50.4161 99.6636 54.0489 100.751 57.7282 101.088C61.4074 101.425 65.0519 101.005 68.428 99.8551C71.804 98.7051 74.8371 96.8502 77.3327 94.4095C79.8283 91.9688 81.7314 88.9961 82.9198 85.682C84.1082 82.3679 84.5559 78.7857 84.234 75.1649C83.912 71.5441 82.8277 67.9647 81.0505 64.6563Z" fill="white"/>
</svg>
