<svg width="121" height="121" viewBox="0 0 121 121" fill="none" xmlns="http://www.w3.org/2000/svg">
<path d="M20.5827 103.243C18.3892 102.903 17.8094 110.436 23.9621 110.085C30.1149 110.436 29.536 102.904 27.3419 103.243L27.3221 103.235C27.2711 103.214 27.2235 103.194 27.1794 103.176L27.6181 83.3601L29.2266 82.6807L29.5191 79.8499L37.1232 78.7176C37.1842 73.0911 34.6569 55.1735 34.5083 48.1222C34.4196 43.9156 34.3448 40.3649 34.3448 38.5554C34.3449 32.3275 27.6913 13.8916 23.962 10.0986C20.2334 13.8917 13.5798 32.3275 13.5798 38.5554C13.5798 40.365 13.505 43.9156 13.4163 48.1223C13.2676 55.1736 10.7403 73.091 10.8014 78.7175L18.4054 79.8499L18.6979 82.6807L20.3064 83.3601L20.7452 103.176C20.6954 103.196 20.6411 103.219 20.5827 103.243Z" fill="white"/>
<path d="M58.961 68.1293C65.4834 77.7841 78.6542 85.0234 78.6542 85.0234C78.6542 85.0234 91.8249 77.7841 98.3473 68.1293C104.325 59.7127 110.655 50.7518 110.655 11.3462C110.655 11.3462 91.7829 16.0391 78.6542 16.0391C65.5254 16.0391 46.6528 11.3462 46.6528 11.3462C46.6528 50.7518 52.9828 59.7127 58.961 68.1293Z" fill="white"/>
</svg>
