<svg width="121" height="120" viewBox="0 0 121 120" fill="none" xmlns="http://www.w3.org/2000/svg">
<path d="M110.5 60C110.5 87.6142 88.1142 110 60.5 110C32.8858 110 10.5 87.6142 10.5 60C10.5 32.3858 32.8858 10 60.5 10C88.1142 10 110.5 32.3858 110.5 60ZM15.7982 60C15.7982 84.6881 35.8119 104.702 60.5 104.702C85.1881 104.702 105.202 84.6881 105.202 60C105.202 35.3119 85.1881 15.2982 60.5 15.2982C35.8119 15.2982 15.7982 35.3119 15.7982 60Z" fill="white"/>
<path fill-rule="evenodd" clip-rule="evenodd" d="M103.801 85L60.5 10L17.1987 85H103.801ZM95.141 80L60.5 20L25.859 80H95.141Z" fill="white"/>
<path fill-rule="evenodd" clip-rule="evenodd" d="M103.801 35L60.5 110L17.1987 35H103.801ZM95.141 40L60.5 100L25.859 40H95.141Z" fill="white"/>
</svg>
