<svg width="121" height="121" viewBox="0 0 121 121" fill="none" xmlns="http://www.w3.org/2000/svg">
<path d="M29.4087 62.0318C30.3994 60.7226 32.2377 60.4844 33.5153 61.4996L62.548 84.5789C63.8252 85.5941 64.0576 87.4787 63.0669 88.7879L55.8555 98.3189C54.865 99.6281 53.0264 99.8663 51.7491 98.8511L22.7163 75.7718C21.439 74.7566 21.2066 72.872 22.1972 71.5628L29.4087 62.0318Z" fill="white"/>
<path d="M85.8657 27.7409C94.1606 31.1417 100 31.3313 102.074 30.623L110.369 62.507C110.369 62.507 106.109 65.3012 101.158 68.2379C93.068 55.0286 75.2278 37.6367 71.0802 37.6367C66.9326 37.6367 63.9388 44.0444 51.4962 50.4212C49.4984 51.4448 41.9346 49.7531 41.9346 43.3766C47.1426 40.1579 53.1531 35.1476 57.3007 28.7707C66.6923 14.3312 77.5705 24.3399 85.8657 27.7409Z" fill="white"/>
<path d="M42.5718 51.1061C48.5507 57.5099 55.6866 52.7792 70.9781 40.3964C75.5205 41.7776 99.5381 67.2752 100.745 73.1516C93.6751 84.9743 75.2202 97.6097 68.5655 98.1551C67.5754 98.2364 63.9218 96.7271 61.943 95.7362L64.5716 91.8017C67.3793 88.091 67.7744 85.0145 64.1545 82.1366L35.783 59.381C32.1631 56.5031 29.6621 56.6111 26.8545 60.3218L22.9743 66.3089C22.5852 65.9789 19.8843 63.6182 19.8843 63.6182L10.6307 60.7316L18.7782 30.5246C21.5609 30.6275 27.7669 30.0596 30.9484 27.8441C38.7938 22.381 48.1479 23.3448 55.0878 26.9537C55.0878 26.9537 46.1524 38.3876 41.3744 39.8387C39.7781 40.3235 35.8907 43.2278 42.5718 51.1061Z" fill="white"/>
</svg>
