<svg width="121" height="121" viewBox="0 0 121 121" fill="none" xmlns="http://www.w3.org/2000/svg">
<path d="M31.2326 11.5547C29.4365 11.5547 27.9805 13.0107 27.9805 14.8067C27.9805 16.6028 29.4364 18.0587 31.2326 18.0587H89.7692C91.5651 18.0587 93.0212 16.6028 93.0212 14.8067C93.0212 13.0107 91.5651 11.5547 89.7692 11.5547H31.2326Z" fill="white"/>
<path fill-rule="evenodd" clip-rule="evenodd" d="M89.7683 21.3108H31.2317V50.579C31.2317 66.7436 44.3354 79.8473 60.5 79.8473C76.6643 79.8473 89.7683 66.7436 89.7683 50.579V21.3108ZM60.8467 50.2366L66.0659 55.4558L68.8944 52.6274L63.6751 47.4083L73.5818 37.5015L75.7031 32.5518L70.7534 34.6731L60.8467 44.5797L50.6529 34.386L45.7031 32.2646L47.8245 37.2144L58.0182 47.4083L52.5119 52.9146L55.3403 55.743L60.8467 50.2366ZM71.2258 51.7103L64.8618 58.0742L66.9831 60.1956L73.3471 53.8315L71.2258 51.7103ZM71.9329 56.66L69.8116 58.7813L74.7613 63.731L76.8826 61.6097L71.9329 56.66ZM56.2575 58.0745L49.8936 51.7104L47.7722 53.8317L54.1362 60.1957L56.2575 58.0745ZM51.3078 58.7816L49.1865 56.6602L44.2367 61.6099L46.358 63.7313L51.3078 58.7816Z" fill="white"/>
<path d="M27.9797 50.579C24.9609 50.579 22.0659 49.3799 19.9313 47.2454C17.7968 45.1108 16.5975 42.2156 16.5975 39.1968C16.5975 36.1781 17.7967 33.2832 19.9313 31.1487C22.0659 29.0142 24.9609 27.8149 27.9797 27.8149V32.3677C26.1684 32.3677 24.4314 33.0871 23.1506 34.3679C21.8699 35.6487 21.1504 37.3857 21.1504 39.1968C21.1504 41.0083 21.8699 42.7454 23.1506 44.0261C24.4314 45.3066 26.1684 46.0263 27.9797 46.0263V50.579Z" fill="white"/>
<path d="M93.0203 50.579C96.039 50.579 98.9343 49.3799 101.069 47.2454C103.203 45.1108 104.402 42.2156 104.402 39.1968C104.402 36.1781 103.203 33.2832 101.069 31.1487C98.9343 29.0142 96.039 27.8149 93.0203 27.8149V32.3677C94.8314 32.3677 96.5685 33.0871 97.8492 34.3679C99.1301 35.6487 99.8495 37.3857 99.8495 39.1968C99.8495 41.0083 99.1301 42.7454 97.8492 44.0261C96.5685 45.3066 94.8314 46.0263 93.0203 46.0263V50.579Z" fill="white"/>
<path d="M63.752 83.1005V89.6045H57.248V83.1005H63.752Z" fill="white"/>
<path d="M53.996 92.8556C52.1998 92.8556 50.744 94.3114 50.744 96.1076C50.744 97.9035 52.1998 99.3596 53.996 99.3596H67.004C68.8002 99.3596 70.256 97.9035 70.256 96.1076C70.256 94.3114 68.8002 92.8556 67.004 92.8556H53.996Z" fill="white"/>
<path d="M40.9877 105.864C40.9877 104.068 42.4438 102.612 44.2397 102.612H76.76C78.5562 102.612 80.0123 104.068 80.0123 105.864C80.0123 107.66 78.5562 109.116 76.76 109.116H44.2397C42.4438 109.116 40.9877 107.66 40.9877 105.864Z" fill="white"/>
</svg>
