<svg width="121" height="121" viewBox="0 0 121 121" fill="none" xmlns="http://www.w3.org/2000/svg">
<rect x="47.5" y="94.3213" width="26" height="3" fill="white"/>
<path d="M36.25 111.025C36.25 105.503 40.7272 101.025 46.25 101.025H74.75C80.2728 101.025 84.75 105.503 84.75 111.025V111.025H36.25V111.025Z" fill="white"/>
<path d="M73.5 22.6455C73.5 19.1977 72.1304 15.8911 69.6924 13.4531C67.2544 11.0151 63.9478 9.64551 60.5 9.64551C57.0522 9.64551 53.7456 11.0151 51.3076 13.4531C48.8696 15.8911 47.5 19.1977 47.5 22.6455L73.5 22.6455Z" fill="white"/>
<path fill-rule="evenodd" clip-rule="evenodd" d="M13.5 47.3496C13.5 35.7516 22.902 26.3496 34.5 26.3496H86.5C98.098 26.3496 107.5 35.7516 107.5 47.3496V69.6176C107.5 81.2155 98.098 90.6176 86.5 90.6176H34.5C22.902 90.6176 13.5 81.2155 13.5 69.6176V47.3496ZM90.5 58.4834C90.5 64.0062 86.0228 68.4834 80.5 68.4834C74.9772 68.4834 70.5 64.0062 70.5 58.4834C70.5 52.9606 74.9772 48.4834 80.5 48.4834C86.0228 48.4834 90.5 52.9606 90.5 58.4834ZM40.5 68.4834C46.0228 68.4834 50.5 64.0062 50.5 58.4834C50.5 52.9606 46.0228 48.4834 40.5 48.4834C34.9772 48.4834 30.5 52.9606 30.5 58.4834C30.5 64.0062 34.9772 68.4834 40.5 68.4834Z" fill="white"/>
</svg>
