<svg width="121" height="121" viewBox="0 0 121 121" fill="none" xmlns="http://www.w3.org/2000/svg">
<path d="M39.6165 26.1069C38.8299 27.8908 38.3814 28.908 39.9496 29.969C41.7156 31.1637 44.6479 31.7339 45.5036 30.3115C45.5614 30.2154 45.609 30.115 45.6566 30.0146C45.7032 29.9163 45.75 29.8177 45.8062 29.7235C46.2671 28.9503 47.6845 26.8098 49.8763 25.6193C51.2852 24.854 54.1328 23.979 55.2012 23.6636C55.3353 23.6241 55.4726 23.5932 55.6098 23.5624C55.7577 23.5291 55.9056 23.4959 56.0495 23.4517C58.1005 22.8224 56.4559 19.9263 54.6873 18.7298C52.8775 17.5054 50.7151 18.0134 47.879 18.8232C47.6586 18.8862 47.4442 18.9615 47.2376 19.0523C46.4224 19.4101 44.2009 20.423 43.0032 21.3364C41.8055 22.2498 40.6593 24.0382 40.2604 24.6964C40.1593 24.8633 40.0761 25.0375 40.002 25.2152C39.8697 25.5328 39.7388 25.8295 39.6165 26.1069Z" fill="white"/>
<path d="M46.9716 30.7522C45.9674 32.3492 45.3948 33.2599 46.3688 34.6376C47.4658 36.1895 49.6024 37.3693 50.5792 36.1429C50.6461 36.0588 50.7049 35.97 50.7638 35.8813C50.7952 35.8337 50.8269 35.786 50.8596 35.7392C50.8871 35.6998 50.9156 35.661 50.9456 35.623C51.4759 34.9535 53.0444 33.1415 54.9977 32.4272C56.1703 31.9985 58.3294 31.7384 59.3412 31.6346C59.476 31.6208 59.6129 31.6184 59.7496 31.6161C59.9839 31.612 60.2178 31.6079 60.4406 31.5463C61.9163 31.138 61.2987 28.1237 60.2443 26.6323C59.1452 25.0775 57.4172 25.0882 55.1262 25.2801C54.8378 25.3042 54.5524 25.3504 54.2738 25.4238C53.4712 25.6354 51.7032 26.142 50.6472 26.7512C49.5244 27.3991 48.2477 28.9148 47.7883 29.4869C47.6688 29.6357 47.5642 29.7926 47.4668 29.9537C47.2942 30.2392 47.1276 30.5042 46.9716 30.7522Z" fill="white"/>
<path fill-rule="evenodd" clip-rule="evenodd" d="M63.932 103.47C82.158 102.387 97.5959 98.7307 96.513 80.5047C95.43 62.2787 62.3872 18.9465 50.3159 41.5213C47.0857 48.4802 42.6487 53.6326 38.5178 58.4297C32.136 65.8406 26.4847 72.4032 27.1421 83.4674C28.225 101.693 45.706 104.553 63.932 103.47ZM49.257 59.8887C44.611 69.4945 39.3678 80.3349 39.6181 84.5476C39.9097 89.4544 42.5935 92.1055 43.3451 92.8479C43.6074 93.1069 43.6344 93.1336 43.2426 92.9428C43.0725 92.8599 42.8225 92.7588 42.5139 92.634C40.0741 91.6475 33.9704 89.1796 34.7172 82.5205C35.2909 77.4057 40.2071 70.4519 45.2222 63.3582C48.6302 58.5376 52.0839 53.6524 54.2516 49.2358C52.9673 52.2173 51.1621 55.9497 49.257 59.8887ZM82.3187 87.0337C83.0409 82.3705 78.7132 64.4146 75.8167 55.9633C76.0509 56.548 76.2965 57.1592 76.5511 57.7928C80.2368 66.9654 85.8102 80.8358 85.9697 87.2543C86.0984 92.4294 81.0401 93.6384 78.8195 94.1692C78.4692 94.2529 78.189 94.3199 78.0116 94.3828C77.6346 94.5164 77.7693 94.3923 78.1705 94.0224C79.1554 93.1145 81.7469 90.7257 82.3187 87.0337Z" fill="white"/>
</svg>
