<?xml version="1.0" standalone="no"?>
<!DOCTYPE svg PUBLIC "-//W3C//DTD SVG 20010904//EN"
 "http://www.w3.org/TR/2001/REC-SVG-20010904/DTD/svg10.dtd">
<svg version="1.0" xmlns="http://www.w3.org/2000/svg"
 width="500.000000pt" height="500.000000pt" viewBox="0 0 500.000000 500.000000"
 preserveAspectRatio="xMidYMid meet">
<metadata>
Created by potrace 1.14, written by Peter Selinger 2001-2017
</metadata>
<g transform="translate(0.000000,500.000000) scale(0.100000,-0.100000)"
fill="#000000" stroke="none">
<path d="M0 2500 l0 -2500 2500 0 2500 0 0 2500 0 2500 -2500 0 -2500 0 0
-2500z m2347 1622 c96 -29 171 -63 238 -107 67 -45 147 -116 176 -156 l21 -30
-76 -74 c-42 -41 -76 -79 -76 -85 0 -5 -5 -10 -11 -10 -6 0 -38 -28 -71 -62
l-59 -63 -16 25 c-32 48 -120 125 -174 151 -93 46 -133 49 -583 49 l-423 0 -6
-452 c-4 -248 -7 -559 -7 -690 0 -231 1 -238 20 -238 11 0 20 -3 20 -6 0 -3
-83 -88 -184 -190 l-185 -184 -50 0 -51 0 0 1075 0 1076 713 -3 c701 -4 713
-4 784 -26z m688 -636 c450 -120 784 -476 869 -926 20 -105 21 -311 1 -422
-24 -141 -95 -321 -166 -425 -16 -23 -29 -45 -29 -48 0 -4 95 -106 211 -226
195 -203 213 -225 248 -302 56 -119 98 -287 72 -287 -32 0 -211 54 -273 83
-68 31 -98 57 -299 249 l-223 215 -54 -34 c-661 -423 -1515 -115 -1765 637
-36 111 -51 211 -51 340 4 539 346 991 864 1139 139 39 140 40 330 36 141 -2
180 -7 265 -29z"/>
<path d="M2632 3129 c-175 -26 -312 -97 -447 -233 -75 -75 -99 -107 -138 -186
-62 -124 -87 -225 -87 -352 0 -375 229 -679 587 -780 100 -28 283 -30 387 -5
86 22 240 93 231 107 -4 6 -27 21 -53 34 -88 45 -87 44 -46 104 l36 54 -22 23
c-13 13 -20 31 -17 39 4 10 -46 68 -148 173 l-153 158 -41 -22 c-40 -21 -42
-21 -51 -3 -6 10 -10 43 -10 74 0 65 29 108 86 126 37 13 119 6 129 -10 3 -5
-4 -26 -15 -47 l-21 -38 157 -152 c106 -102 165 -153 180 -153 12 0 27 -7 34
-15 18 -21 31 -19 76 15 21 16 44 30 50 30 6 0 28 -32 49 -70 l38 -70 19 27
c28 42 75 171 87 237 15 83 13 238 -4 318 -32 152 -97 269 -215 389 -185 187
-418 265 -678 228z"/>
</g>
</svg>
