<svg width="121" height="121" viewBox="0 0 121 121" fill="none" xmlns="http://www.w3.org/2000/svg">
<path d="M29.0432 45.2832L42.0395 52.6074V67.2559L29.0432 74.5801L16.047 67.2559V52.6074L29.0432 45.2832Z" fill="white"/>
<path d="M92.6722 45.4297L105.668 52.7539V67.4023L92.6722 74.7266L79.6759 67.4023V52.7539L92.6722 45.4297Z" fill="white"/>
<path d="M60.8577 45.2832L73.854 52.6074V67.2559L60.8577 74.5801L47.8614 67.2559V52.6074L60.8577 45.2832Z" fill="white"/>
<path d="M44.9505 17.8906L57.9468 25.2148V39.8633L44.9505 47.1875L31.9542 39.8633V25.2148L44.9505 17.8906Z" fill="white"/>
<path d="M77.3652 17.8906L90.3615 25.2148V39.8633L77.3652 47.1875L64.3689 39.8633V25.2148L77.3652 17.8906Z" fill="white"/>
<path d="M44.9505 72.9688L57.9468 80.293V94.9414L44.9505 102.266L31.9542 94.9414V80.293L44.9505 72.9688Z" fill="white"/>
<path d="M77.3652 72.9688L90.3615 80.293V94.9414L77.3652 102.266L64.3689 94.9414V80.293L77.3652 72.9688Z" fill="white"/>
</svg>
