<svg width="120" height="120" viewBox="0 0 120 120" fill="none" xmlns="http://www.w3.org/2000/svg">
<path d="M33.6143 42.7193C30.5813 41.1123 31.3684 32.0244 33.1163 25.7842C34.1966 21.9273 42.0819 20.8032 42.0819 20.8032C42.0819 20.8032 60.9813 18.4499 63.4999 21.7994C79.5308 43.1194 94.9126 71.6087 94.9126 71.6087C94.9126 71.6087 99.8857 81.9965 96.8721 88.5439C93.1898 96.5442 85.0784 100 85.0784 100H22.1582C22.1583 87.0496 22.1582 78.582 22.1582 63.6392C28.5338 63.6392 34.4445 68.9522 36.6029 71.6087C38.7613 68.9522 41.3397 61.0227 52.2976 61.0227C61.5125 61.0227 64.4386 67.1259 67.4272 71.6087C67.4272 69.1183 63.4999 56.2317 63.4999 56.2317C63.4999 56.2317 60.3667 47.4061 57.593 40.0935L54.0362 43.2174C54.0362 43.2174 38.1767 45.1367 33.6143 42.7193Z" fill="white"/>
</svg>
