<svg width="120" height="120" viewBox="0 0 120 120" fill="none" xmlns="http://www.w3.org/2000/svg">
<path fill-rule="evenodd" clip-rule="evenodd" d="M16.2591 55.022C20.9152 74.7295 42.8898 91.6296 74.8799 103.081C97.9295 74.5157 107.672 52.6908 103.361 34.4431C100.472 22.2153 88.2175 14.6447 75.9897 17.5336C65.7179 19.9605 58.7325 28.9961 58.4729 39.0732C53.7309 30.1778 43.4403 25.2238 33.1686 27.6506C20.9407 30.5396 13.3701 42.7942 16.2591 55.022ZM39.2038 67.3301C41.831 78.45 54.2301 87.9858 72.2804 94.4471C85.286 78.3294 90.7834 66.0147 88.3508 55.7186C86.7207 48.8191 79.8061 44.5474 72.9066 46.1775C67.1108 47.5468 63.1693 52.6451 63.0229 58.3311C60.3472 53.3119 54.5408 50.5166 48.745 51.8859C41.8455 53.516 37.5738 60.4306 39.2038 67.3301Z" fill="white"/>
</svg>
