<svg width="120" height="120" viewBox="0 0 120 120" fill="none" xmlns="http://www.w3.org/2000/svg">
<path d="M91.4121 86.9613C91.4121 86.9613 90.2094 81.0339 88.2862 74.3853C85.1015 74.5235 81.5314 74.5348 78.945 74.5098C76.5464 75.7853 73.8084 76.508 70.9121 76.508C61.4542 76.508 53.7871 68.8408 53.7871 59.383C53.7871 56.05 54.9164 53.0347 56.2742 50.6924C57.6237 48.3645 59.4021 46.3486 61.1777 45.0276L61.2979 44.9382C63.522 43.2836 68.6935 39.4361 74.304 34.8824L74.3333 34.8586C75.2594 34.107 76.2125 33.3334 77.1861 32.5438C75.8553 22.5014 74.5811 13.6838 72.5891 13.5789C70.1223 13.4491 68.706 15.2348 67.1931 17.1421C65.5273 19.2423 63.7445 21.49 60.3133 21.49C57.6391 21.49 54.2823 20.8074 51.0421 20.1485C46.3495 19.1942 41.9015 18.2897 40.1264 19.5807C37.1257 21.7631 32.4881 26.4006 34.6705 30.4925C36.4164 33.7661 43.9455 52.9526 47.4919 62.1366C42.6011 68.6052 33.9694 73.2489 26.7681 77.1231C21.5176 79.9477 17.0274 82.3633 15.302 84.779C12.5649 88.611 15.5748 107.967 26.4867 106.33C35.2162 105.02 57.4035 93.0538 67.6789 86.9613L69.3156 93.2354L91.4121 86.9613Z" fill="white"/>
<path d="M77.2049 38.8896C71.5071 43.5142 66.2638 47.4147 64.0322 49.0748L63.9121 49.1642C61.5796 50.8996 58.5371 55.0764 58.5371 59.5079C58.5371 66.2044 63.9657 71.6329 70.6621 71.6329C73.1381 71.6329 75.4407 70.8908 77.3597 69.6168C81.1924 69.6813 88.4725 69.6719 92.1276 69.1863C96.0406 68.6663 96.2496 64.3867 95.8649 62.3119C92.8345 62.7224 88.6884 63.3278 84.8107 63.894C83.7756 64.0452 82.7588 64.1936 81.7883 64.3347C82.0689 63.6887 82.295 63.0135 82.4605 62.3149C88.4421 60.7254 97.0925 58.2505 101.605 56.3452C107.221 53.9736 105.786 47.5134 104.366 44.5797C100.019 46.428 94.0904 49.0222 88.5454 51.4483L88.5443 51.4488C86.1304 52.5049 83.7894 53.5292 81.6833 54.4463C81.4128 53.8582 81.0965 53.2955 80.7392 52.7627C88.1833 48.3908 96.3292 43.3554 101.006 39.7579C108.806 33.7579 103.923 24.2579 100.506 20.2579C93.2044 25.9038 84.4152 33.0375 77.2049 38.8896Z" fill="white"/>
</svg>
