<svg width="121" height="121" viewBox="0 0 121 121" fill="none" xmlns="http://www.w3.org/2000/svg">
<path fill-rule="evenodd" clip-rule="evenodd" d="M105.929 60.0781C105.929 84.931 85.7817 105.078 60.9289 105.078C36.0761 105.078 15.9289 84.931 15.9289 60.0781C15.9289 35.2253 36.0761 15.0781 60.9289 15.0781C85.7817 15.0781 105.929 35.2253 105.929 60.0781ZM68.6789 60.7656C68.6789 58.0042 70.9175 55.7656 73.6789 55.7656H83.6789C86.4403 55.7656 88.6789 58.0042 88.6789 60.7656C88.6789 63.527 86.4403 65.7656 83.6789 65.7656H73.6789C70.9175 65.7656 68.6789 63.527 68.6789 60.7656ZM55.9289 47.5781C55.9289 50.3395 58.1675 52.5781 60.9289 52.5781C63.6903 52.5781 65.9289 50.3395 65.9289 47.5781V27.5781C65.9289 24.8167 63.6903 22.5781 60.9289 22.5781C58.1675 22.5781 55.9289 24.8167 55.9289 27.5781V47.5781Z" fill="white"/>
</svg>
